<svg width="209" height="130" viewBox="0 0 209 130" fill="none" xmlns="http://www.w3.org/2000/svg">
<g id="&#208;&#159;&#208;&#187;&#208;&#176;&#209;&#130;&#208;&#181;&#208;&#182;&#208;&#189;&#209;&#139;&#208;&#181; &#209;&#129;&#209;&#128;&#208;&#181;&#208;&#180;&#209;&#129;&#209;&#130;&#208;&#178;&#208;&#176;">
<g id="Crypto">
<path fillRule="evenodd" clipRule="evenodd" d="M136.897 97.5C142.03 97.5 146.604 99.9124 149.56 103.672C147.677 106.568 146.581 110.03 146.581 113.75C146.581 117.47 147.677 120.932 149.56 123.827C146.604 127.588 142.03 130 136.897 130C127.982 130 120.756 122.725 120.756 113.75C120.756 104.775 127.982 97.5 136.897 97.5ZM135.258 103.819H133.429V106.832C133.168 106.84 132.784 106.844 132.277 106.844L129.76 106.832V108.792H131.078C131.68 108.792 132.032 109.063 132.135 109.605V113.036C132.214 113.036 132.277 113.04 132.325 113.048H132.135V117.853C132.072 118.259 131.842 118.463 131.446 118.463H130.128L129.76 120.65L132.348 120.651C132.47 120.652 132.617 120.654 132.788 120.656C133.073 120.66 133.287 120.662 133.429 120.662V123.71H135.258V120.698C135.495 120.704 135.81 120.707 136.2 120.709L136.706 120.71V123.71H138.535V120.662C139.184 120.63 139.76 120.571 140.262 120.483C140.765 120.395 141.246 120.257 141.705 120.07C142.164 119.883 142.548 119.65 142.856 119.371C143.165 119.092 143.42 118.737 143.623 118.307C143.824 117.876 143.953 117.378 144.008 116.812C144.111 115.705 143.933 114.852 143.474 114.254C143.015 113.657 142.322 113.247 141.396 113.023C142.576 112.418 143.094 111.39 142.952 109.939C142.904 109.413 142.76 108.957 142.518 108.571C142.277 108.184 141.95 107.874 141.538 107.639C141.127 107.403 140.679 107.224 140.197 107.101C139.714 106.977 139.16 106.888 138.534 106.832V103.819H136.706V106.748C136.389 106.748 135.907 106.756 135.258 106.772V103.819ZM136.623 114.41C136.821 114.41 137.094 114.422 137.442 114.446C137.791 114.47 138.083 114.505 138.321 114.553C138.558 114.601 138.817 114.675 139.099 114.774C139.38 114.874 139.607 114.996 139.781 115.139C139.956 115.283 140.102 115.466 140.221 115.689C140.34 115.912 140.399 116.167 140.399 116.454C140.399 116.677 140.361 116.88 140.286 117.064C140.211 117.247 140.114 117.406 139.995 117.542C139.876 117.677 139.72 117.797 139.526 117.9C139.332 118.004 139.144 118.088 138.962 118.151C138.78 118.215 138.56 118.271 138.303 118.319C138.046 118.367 137.82 118.4 137.626 118.42C137.432 118.44 137.201 118.456 136.932 118.468C136.663 118.48 136.453 118.486 136.302 118.486C136.152 118.486 135.962 118.484 135.732 118.48C135.503 118.476 135.357 118.474 135.293 118.474V114.434C135.356 114.434 135.544 114.43 135.857 114.422C136.17 114.414 136.425 114.41 136.623 114.41ZM137.092 108.935C137.381 108.959 137.625 108.991 137.822 109.031C138.02 109.071 138.238 109.136 138.475 109.228C138.713 109.32 138.903 109.431 139.045 109.563C139.188 109.694 139.308 109.862 139.407 110.065C139.506 110.268 139.556 110.501 139.556 110.764C139.556 110.987 139.52 111.19 139.449 111.374C139.378 111.557 139.271 111.711 139.128 111.834C138.986 111.958 138.839 112.065 138.689 112.157C138.539 112.248 138.347 112.322 138.113 112.378C137.88 112.434 137.676 112.478 137.502 112.509C137.328 112.541 137.11 112.563 136.849 112.575C136.588 112.587 136.39 112.595 136.255 112.599C136.121 112.603 135.937 112.603 135.703 112.599C135.469 112.595 135.333 112.593 135.293 112.593V108.923C135.349 108.923 135.505 108.921 135.762 108.917C136.02 108.913 136.233 108.909 136.403 108.905C136.574 108.901 136.803 108.911 137.092 108.935Z" fill="#9F9F9F"/>
<path fillRule="evenodd" clipRule="evenodd" d="M164.872 97.5C170.006 97.5 174.579 99.9124 177.536 103.672C175.652 106.568 174.557 110.03 174.557 113.75C174.557 117.47 175.652 120.932 177.536 123.827C174.579 127.588 170.006 130 164.872 130C155.958 130 148.731 122.725 148.731 113.75C148.731 104.775 155.958 97.5 164.872 97.5ZM170.303 114.171L164.897 116.76L159.492 114.171L164.897 123.681L170.303 114.171ZM164.897 111.241L160.493 113.344L164.897 115.444L169.309 113.341L164.897 111.241ZM164.897 103.819L160.075 112.251L164.897 109.948L169.714 112.242L164.897 103.819Z" fill="#9F9F9F"/>
<path fillRule="evenodd" clipRule="evenodd" d="M192.859 97.5C201.774 97.5 209 104.775 209 113.75C209 122.725 201.774 130 192.859 130C183.945 130 176.718 122.725 176.718 113.75C176.718 104.775 183.945 97.5 192.859 97.5ZM198.81 106.528H186.478V109.862H190.987V111.473C187.441 111.679 184.789 112.51 184.789 113.503C184.789 114.496 187.441 115.327 190.987 115.533V121.287H194.3V115.541C197.912 115.348 200.63 114.509 200.63 113.503C200.63 112.497 197.912 111.658 194.3 111.465L194.3 109.862H198.81V106.528ZM194.3 111.829C197.41 111.968 199.729 112.503 199.729 113.144C199.729 113.89 196.586 114.494 192.709 114.494C188.833 114.494 185.69 113.89 185.69 113.144C185.69 112.513 187.943 111.983 190.987 111.835L190.988 113.772C191.537 113.803 192.113 113.82 192.709 113.82C193.258 113.82 193.791 113.805 194.3 113.78V111.829Z" fill="#9F9F9F"/>
</g>
<path id="QIWI" d="M136.997 77.7096C139.775 77.7096 142.789 78.6591 146.125 81.6066C146.459 81.902 146.904 81.535 146.612 81.1684C143.334 77.041 140.302 76.2548 137.278 75.5904C133.58 74.7777 131.677 72.7024 130.351 70.4238C130.087 69.9703 129.969 70.0503 129.945 70.6328C129.916 71.3457 129.966 72.2889 130.126 73.2167C129.976 73.2237 129.826 73.2215 129.675 73.2215C124.384 73.2215 120.095 68.944 120.095 63.6674C120.095 58.3907 124.384 54.1132 129.675 54.1132C134.967 54.1132 139.257 58.3907 139.257 63.6674C139.257 64.0428 139.238 64.4139 139.196 64.7781C138.496 64.6524 137.119 64.6383 136.153 64.7216C135.79 64.7529 135.841 64.9216 136.115 64.9712C139.282 65.5418 141.459 67.4992 141.956 71.0509C141.967 71.1327 142.074 71.1571 142.117 71.0864C143.42 68.9179 144.169 66.3797 144.169 63.6674C144.169 55.6853 137.68 49.2144 129.675 49.2144C121.671 49.2144 115.182 55.6853 115.182 63.6674C115.182 71.6497 121.671 78.1213 129.675 78.1213C131.799 78.1213 133.906 77.7096 136.997 77.7096ZM138.076 72.4618C138.721 73.0056 138.918 73.6519 138.576 74.1079C138.387 74.3578 138.079 74.4956 137.711 74.4956C137.349 74.4956 136.98 74.3621 136.725 74.1395C136.138 73.6285 135.966 72.8002 136.349 72.3295C136.498 72.1454 136.741 72.044 137.033 72.044C137.387 72.044 137.757 72.1926 138.076 72.4618ZM141.052 71.0813C141.146 71.7147 140.945 71.977 140.744 71.977C140.524 71.977 140.248 71.7201 139.922 71.2136C139.601 70.7135 139.484 70.1396 139.643 69.8497C139.748 69.6578 139.968 69.5744 140.246 69.6791C140.784 69.8818 140.995 70.7029 141.052 71.0813ZM161.142 67.7714L159.471 65.7673C159.296 65.5571 159.446 65.2386 159.72 65.2386H163.216C163.382 64.7444 163.476 64.2166 163.476 63.6683C163.476 61.1578 161.602 58.9932 159.031 58.9932C156.459 58.9932 154.585 61.1578 154.585 63.6683C154.585 66.1788 156.459 68.3127 159.031 68.3127C159.81 68.3127 160.524 68.1142 161.142 67.7714ZM168.702 71.1583C168.884 71.3586 168.735 71.681 168.461 71.681H164.647C164.492 71.681 164.344 71.6121 164.245 71.493L163.598 70.7177C162.282 71.5691 160.714 72.066 159.031 72.066C154.387 72.066 150.61 68.2989 150.61 63.6683C150.61 59.0377 154.387 55.2703 159.031 55.2703C163.674 55.2703 167.452 59.0377 167.452 63.6683C167.452 65.3376 166.959 66.8931 166.113 68.2018L168.702 71.1583ZM203.941 55.6568H200.828C200.6 55.6568 200.414 55.8417 200.414 56.07V71.2666C200.414 71.4945 200.6 71.6795 200.828 71.6795H203.941C204.17 71.6795 204.355 71.4945 204.355 71.2666V56.07C204.355 55.8417 204.17 55.6568 203.941 55.6568ZM198.703 55.6568H195.22C195.037 55.6568 194.877 55.7747 194.824 55.947L192.067 64.9276L189.038 55.9371C188.981 55.7699 188.823 55.6568 188.645 55.6568H186.215C186.036 55.6568 185.878 55.7699 185.822 55.9371L182.792 64.9276L180.036 55.947C179.983 55.7747 179.822 55.6568 179.64 55.6568H176.157C176.024 55.6568 175.898 55.7202 175.821 55.827C175.743 55.9338 175.722 56.0712 175.764 56.1961L180.88 71.401C180.936 71.5682 181.094 71.681 181.273 71.681H184.037C184.216 71.681 184.374 71.5682 184.43 71.4013L187.43 62.5182L190.429 71.4013C190.486 71.5682 190.644 71.681 190.822 71.681H193.587C193.765 71.681 193.923 71.5682 193.98 71.401L199.095 56.1961C199.138 56.0712 199.117 55.9338 199.039 55.827C198.961 55.7202 198.836 55.6568 198.703 55.6568ZM174.445 56.07V71.2666C174.445 71.4945 174.26 71.6795 174.031 71.6795H170.918C170.689 71.6795 170.504 71.4945 170.504 71.2666V56.07C170.504 55.8417 170.689 55.6568 170.918 55.6568H174.031C174.26 55.6568 174.445 55.8417 174.445 56.07Z" fill="#9F9F9F"/>
<g id="PayPal">
<path d="M129.008 6.2322C127.944 5.96004 126.729 5.47898 125.624 5.46748C123.342 5.44576 121.062 5.42787 118.781 5.41381C118.128 5.40998 117.759 5.67575 117.677 6.21111C117.264 8.89561 116.848 11.5795 116.43 14.2627C116.41 14.3981 116.431 14.5042 116.494 14.5809C116.48 14.6205 116.43 14.6594 116.343 14.6978C116.286 14.722 116.252 14.7642 116.242 14.8243L115.031 22.1284C113.423 22.1194 111.826 22.1143 110.24 22.113C109.947 22.113 109.737 21.9156 109.609 21.5208V21.1682C110.657 14.5994 111.68 8.03187 112.676 1.46564C112.822 0.513099 113.173 0.0052023 114.173 0.00328572C117.069 -0.00438063 119.964 0.00136843 122.858 0.0205343C123.302 0.0230898 123.902 0.107421 124.659 0.273525C127.705 0.944331 129.318 2.99125 129.008 6.2322Z" fill="#515151"/>
<path d="M129.008 6.2322C129.063 6.27819 129.094 6.34144 129.099 6.42194C128.308 10.7202 125.879 13.1722 121.811 13.7778C120.6 13.958 119.041 13.8679 117.692 13.8794C117.096 13.8851 116.762 14.0883 116.494 14.5809C116.431 14.5042 116.41 14.3981 116.43 14.2627C116.848 11.5795 117.264 8.89561 117.677 6.21111C117.759 5.67575 118.128 5.40998 118.781 5.41381C121.062 5.42787 123.342 5.44576 125.624 5.46748C126.729 5.47898 127.944 5.96004 129.008 6.2322Z" fill="#515151"/>
<path d="M129.099 6.42194C130.321 7.50417 130.858 8.90392 130.71 10.6212C130.601 11.8746 130.423 13.0572 129.889 14.1573C128.297 17.4327 125.488 18.0729 121.934 18.0671C121.753 18.0668 121.578 18.1303 121.44 18.2463C121.302 18.3623 121.211 18.523 121.183 18.6996L120.301 24.2309C120.271 24.4191 120.173 24.5904 120.027 24.714C119.88 24.8377 119.694 24.9056 119.501 24.9055L115.186 24.9074C115.11 24.9073 115.034 24.8908 114.965 24.8591C114.896 24.8274 114.835 24.7813 114.786 24.7239C114.736 24.6664 114.7 24.5991 114.68 24.5266C114.659 24.454 114.655 24.378 114.668 24.3037L115.031 22.1284L116.242 14.8243C116.252 14.7642 116.286 14.722 116.343 14.6978C116.43 14.6594 116.48 14.6205 116.494 14.5809C116.762 14.0883 117.096 13.8851 117.692 13.8794C119.041 13.8679 120.6 13.958 121.811 13.7778C125.879 13.1722 128.308 10.7202 129.099 6.42194Z" fill="#9F9F9F"/>
<path d="M152.596 10.6633C152.009 15.6101 149.107 16.5549 144.574 16.3479C144.402 16.3404 144.234 16.3951 144.1 16.5018C143.966 16.6084 143.877 16.7596 143.848 16.9268L143.241 20.5338C143.203 20.76 143.085 20.9655 142.907 21.1137C142.73 21.2618 142.505 21.343 142.272 21.3426L139.836 21.3387C139.776 21.3386 139.717 21.3258 139.663 21.301C139.609 21.2763 139.561 21.2403 139.522 21.1956C139.483 21.1508 139.455 21.0982 139.439 21.0416C139.423 20.9849 139.419 20.9254 139.428 20.8673L141.616 7.28824C141.649 7.08353 141.755 6.89703 141.914 6.76192C142.073 6.62681 142.276 6.55185 142.486 6.55035C144.242 6.53757 146.062 6.53949 147.946 6.5561C149.389 6.5676 151.538 6.949 152.221 8.31936C152.572 9.02594 152.696 9.80727 152.596 10.6633ZM147.746 12.9843C148.36 12.463 148.599 11.3821 148.43 10.6691C148.154 9.51914 146.325 9.60731 145.413 9.66672C145.339 9.6712 145.268 9.70013 145.213 9.74883C145.158 9.79753 145.121 9.86314 145.108 9.93504L144.499 13.3983C144.486 13.4673 144.515 13.5056 144.586 13.5133C145.551 13.6283 146.974 13.6398 147.746 12.9843Z" fill="#515151"/>
<path d="M182.506 16.8846L181.836 21.0187C181.822 21.1074 181.775 21.188 181.706 21.2463C181.637 21.3046 181.549 21.3366 181.458 21.3368L178.528 21.3387C178.464 21.3386 178.4 21.3248 178.342 21.2982C178.283 21.2716 178.231 21.2328 178.189 21.1845C178.147 21.1363 178.117 21.0796 178.099 21.0186C178.082 20.9575 178.078 20.8935 178.088 20.8308L180.268 7.3074C180.302 7.09645 180.411 6.90431 180.575 6.76529C180.739 6.62626 180.948 6.5494 181.165 6.54843C182.94 6.54204 184.777 6.54332 186.676 6.55227C187.624 6.55738 188.538 6.73051 189.417 7.07166C191.764 7.98396 191.451 10.7362 190.842 12.6298C189.679 16.2425 186.519 16.4323 183.154 16.3518C183 16.348 182.849 16.3999 182.729 16.4979C182.61 16.5958 182.531 16.7332 182.506 16.8846ZM187.058 11.7194C187.324 9.54214 185.484 9.61689 183.935 9.66097C183.854 9.66369 183.776 9.69376 183.715 9.74611C183.654 9.79847 183.613 9.86993 183.599 9.94846L182.986 13.4347C182.976 13.4833 182.997 13.5088 183.046 13.5114C184.787 13.6341 186.814 13.6954 187.058 11.7194Z" fill="#9F9F9F"/>
<path d="M209 7.00075V7.3074C208.242 11.7973 207.512 16.2879 206.81 20.7791C206.729 21.3062 206.148 21.494 205.628 21.4959C204.991 21.4959 204.359 21.494 203.731 21.4901C203.672 21.4898 203.613 21.4767 203.559 21.4519C203.506 21.427 203.458 21.391 203.419 21.3462C203.381 21.3015 203.352 21.249 203.336 21.1925C203.32 21.136 203.317 21.0767 203.326 21.0187L205.537 6.97966C205.55 6.89708 205.593 6.82204 205.658 6.76821C205.723 6.71438 205.805 6.68536 205.89 6.68643C206.696 6.70048 207.555 6.70112 208.466 6.68834C208.72 6.68451 208.898 6.78864 209 7.00075Z" fill="#9F9F9F"/>
<path d="M159.681 20.2118C158.058 21.4691 156.282 21.8166 154.352 21.2544C152.475 20.7063 151.594 18.4734 151.858 16.6603C152.247 13.9822 153.676 12.2388 156.142 11.43C157.212 11.0792 160.056 11.0773 160.72 12.3384C160.84 12.5659 160.919 12.5378 160.956 12.2541C161.024 11.7443 161.1 11.5392 161.681 11.5335C162.458 11.5284 163.226 11.5271 163.983 11.5296C164.076 11.5298 164.169 11.55 164.253 11.589C164.338 11.6279 164.413 11.6845 164.474 11.755C164.534 11.8255 164.579 11.9082 164.604 11.9974C164.629 12.0865 164.634 12.18 164.62 12.2714L163.274 20.5357C163.238 20.761 163.121 20.9662 162.945 21.1142C162.769 21.2622 162.545 21.3432 162.313 21.3426L160.001 21.3387C159.945 21.3388 159.89 21.3267 159.839 21.3032C159.789 21.2798 159.744 21.2455 159.708 21.2029C159.672 21.1603 159.646 21.1104 159.631 21.0567C159.617 21.003 159.615 20.9469 159.625 20.8922L159.743 20.2482C159.755 20.1818 159.734 20.1696 159.681 20.2118ZM156.132 18.6862C158.377 19.8802 161.382 17.4461 160.073 15.0753C159.84 14.6537 159.486 14.3624 159.009 14.2014C156.631 13.3964 154.477 15.6311 155.461 17.9387C155.604 18.2748 155.828 18.5239 156.132 18.6862Z" fill="#515151"/>
<path d="M198.116 20.2367C196.684 21.3854 195.079 21.7566 193.299 21.3502C190.378 20.6833 189.755 17.5171 190.745 15.1098C191.78 12.5965 193.666 11.2945 196.401 11.2038C197.586 11.1642 198.574 11.5833 199.366 12.4611C199.419 12.5186 199.444 12.5084 199.441 12.4304C199.431 12.143 199.505 11.8829 199.665 11.6504C199.69 11.6137 199.724 11.5837 199.763 11.563C199.803 11.5423 199.847 11.5315 199.892 11.5316L202.495 11.5277C202.586 11.5277 202.676 11.5472 202.759 11.5849C202.842 11.6225 202.915 11.6774 202.974 11.7458C203.033 11.8142 203.077 11.8943 203.101 11.9808C203.126 12.0672 203.131 12.1579 203.116 12.2464L201.761 20.5817C201.728 20.7847 201.624 20.97 201.468 21.1059C201.312 21.2419 201.113 21.3201 200.905 21.3272C200.242 21.3515 199.531 21.3528 198.77 21.3311C197.929 21.3062 198.112 20.8826 198.222 20.2999C198.244 20.1837 198.209 20.1626 198.116 20.2367ZM195.679 18.9794C197.235 18.9807 198.255 18.3323 198.741 17.0341C199.222 15.7461 198.88 14.7917 197.587 14.2512C195.378 13.3274 193.224 15.3437 193.812 17.5516C194.06 18.483 194.724 18.9794 195.679 18.9794Z" fill="#9F9F9F"/>
<path d="M171.068 16.9996L174.399 11.9168C174.478 11.7974 174.585 11.6992 174.711 11.6313C174.837 11.5633 174.978 11.5277 175.122 11.5277L177.705 11.5296C177.788 11.5296 177.87 11.552 177.941 11.5945C178.012 11.637 178.07 11.6979 178.108 11.7707C178.147 11.8434 178.164 11.9251 178.159 12.007C178.154 12.0889 178.126 12.1677 178.078 12.2349C175.153 16.3812 172.222 20.5338 169.284 24.6928C169.113 24.9355 168.877 25.0588 168.574 25.0627C167.699 25.0729 166.89 25.0742 166.147 25.0665C166.06 25.0652 165.974 25.0404 165.9 24.9946C165.825 24.9489 165.765 24.8839 165.725 24.8068C165.685 24.7297 165.668 24.6434 165.674 24.5571C165.68 24.4708 165.71 24.3878 165.761 24.3171L168.415 20.62C168.428 20.6009 168.437 20.579 168.44 20.5561C168.443 20.5332 168.441 20.5098 168.434 20.4878L165.646 12.3825C165.619 12.3024 165.611 12.2168 165.623 12.133C165.636 12.0492 165.669 11.9695 165.719 11.9005C165.769 11.8315 165.835 11.7753 165.911 11.7365C165.988 11.6977 166.073 11.6773 166.159 11.6772L168.71 11.6791C168.867 11.6791 169.02 11.7287 169.146 11.8207C169.273 11.9127 169.367 12.0424 169.414 12.1909L170.93 16.9804C170.963 17.0852 171.009 17.0916 171.068 16.9996Z" fill="#515151"/>
</g>
<g id="Mir">
<path d="M64.0275 117.28V130H71.2375V122.462H79.4089C82.8457 122.439 85.7657 120.283 86.8713 117.28H64.0275Z" fill="#9F9F9F"/>
<path d="M63.0662 106.798C63.4867 111.992 68.5097 116.102 74.6382 116.102C74.6623 116.102 87.1716 116.102 87.1716 116.102C87.2677 115.631 87.3158 115.136 87.3158 114.63C87.3158 110.319 83.7709 106.833 79.3848 106.798H63.0662Z" fill="#393939"/>
<path d="M52.3954 115.972C52.4795 115.831 52.6117 115.749 52.7799 115.749C53.0203 115.749 53.2005 115.937 53.2125 116.161V129.882H60.4225V106.798H53.2125C52.2993 106.833 51.2658 107.481 50.8813 108.293L45.1493 120.354C45.1373 120.401 45.1133 120.448 45.0893 120.495C45.0051 120.613 44.861 120.695 44.6927 120.695C44.4283 120.695 44.212 120.483 44.212 120.224V106.798H37.002V129.882H44.212C45.1133 129.835 46.1227 129.187 46.5072 128.386L52.3954 116.008C52.3834 115.996 52.3954 115.984 52.3954 115.972Z" fill="#9F9F9F"/>
<path d="M25.478 116.373L21.2602 129.882H16.069L11.8631 116.361C11.8271 116.149 11.6348 115.984 11.3945 115.984C11.1301 115.984 10.9258 116.196 10.9258 116.443V129.87H3.71582V106.786H11.743C13.0648 106.786 14.4587 107.799 14.8433 109.035L18.3521 120.283C18.5324 120.848 18.8088 120.837 18.989 120.283L22.4979 109.035C22.8824 107.787 24.2764 106.786 25.5982 106.786H33.6253V129.87H26.4153V116.443C26.4153 116.443 26.4153 116.443 26.4153 116.432C26.4153 116.173 26.199 115.972 25.9467 115.972C25.7063 115.984 25.5141 116.149 25.478 116.373Z" fill="#9F9F9F"/>
</g>
<g id="MasterCard">
<path d="M39.9392 52.1079C43.3567 55.2872 45.228 59.1785 45.9454 63.7955C45.4779 63.8048 45.0206 63.9385 44.5732 64.1967C44.4804 64.2523 44.4455 64.2268 44.4688 64.1202L44.5082 63.9416C44.5117 63.925 44.5115 63.9079 44.5076 63.8914C44.5037 63.8749 44.4963 63.8596 44.4858 63.8465C44.4754 63.8334 44.4622 63.8228 44.4472 63.8156C44.4322 63.8084 44.4157 63.8047 44.3991 63.8048L42.8343 63.8094C42.7708 63.8094 42.7329 63.8403 42.7205 63.9022L41.504 69.9315C41.4823 70.0366 41.5249 70.0892 41.6317 70.0892L43.1315 70.0915C43.2058 70.093 43.2507 70.0567 43.2661 69.9825L44.0927 65.8663C44.1092 65.7915 44.1512 65.7257 44.2111 65.6808C44.5763 65.4041 44.9664 65.3546 45.3812 65.5324C45.4431 65.5587 45.4857 65.5401 45.5089 65.4767L45.9686 64.2013C46.0274 64.2353 46.0738 64.3428 46.1079 64.5237C45.7194 65.8887 45.6528 67.1974 45.9082 68.4496C45.5244 70.2739 45.2156 71.4999 44.9819 72.1275C44.3039 73.9456 43.3938 75.6338 42.2516 77.1921C41.6294 78.0432 40.7401 78.8641 39.981 79.6966C27.3905 90.983 8.00907 80.9604 9.35565 64.3613C10.5931 49.1327 28.4654 41.9926 39.9392 52.1079ZM13.797 64.8251L14.078 69.9152C14.0841 70.0034 14.1313 70.0474 14.2196 70.0474L15.2643 70.0497C15.351 70.0497 15.4114 70.0103 15.4454 69.9315L17.5187 65.0895C17.523 65.0802 17.5305 65.0729 17.5399 65.0688C17.5492 65.0647 17.5597 65.0642 17.5695 65.0673C17.5792 65.0705 17.5874 65.077 17.5926 65.0858C17.5978 65.0946 17.5996 65.105 17.5976 65.115L16.6248 69.9778C16.6094 70.052 16.6403 70.0892 16.7177 70.0892L18.3661 70.0915C18.4019 70.0915 18.4367 70.079 18.4642 70.0561C18.4918 70.0333 18.5105 70.0015 18.517 69.9662L20.1375 61.9079C20.1577 61.8089 20.1174 61.7594 20.0168 61.7594L18.0643 61.7571C18.0286 61.7571 17.9936 61.7671 17.9629 61.7859C17.9322 61.8047 17.907 61.8316 17.8902 61.8638L15.5429 66.3533C15.5363 66.365 15.5263 66.3744 15.5142 66.3801C15.502 66.3859 15.4884 66.3877 15.4752 66.3855C15.462 66.3832 15.4498 66.3768 15.4403 66.3673C15.4308 66.3579 15.4245 66.3457 15.4222 66.3324L14.7234 61.8754C14.7184 61.8426 14.7019 61.8127 14.6767 61.791C14.6516 61.7693 14.6196 61.7573 14.5864 61.7571H12.6548C12.5805 61.7571 12.5356 61.7942 12.5201 61.8684L10.8972 69.9384C10.8771 70.0389 10.9181 70.0892 11.0203 70.0892L12.5039 70.0915C12.5467 70.0922 12.5885 70.0778 12.622 70.0507C12.6555 70.0236 12.6786 69.9855 12.6873 69.9431L13.7134 64.8205C13.7137 64.815 13.7151 64.8096 13.7175 64.8047C13.7199 64.7997 13.7232 64.7953 13.7273 64.7916C13.7314 64.788 13.7362 64.7852 13.7414 64.7833C13.7466 64.7815 13.7521 64.7808 13.7576 64.7811C13.763 64.7814 13.7684 64.7827 13.7734 64.7851C13.7783 64.7875 13.7828 64.7908 13.7864 64.7949C13.7901 64.799 13.7929 64.8038 13.7947 64.809C13.7966 64.8141 13.7973 64.8196 13.797 64.8251ZM33.9585 63.661L34.1373 62.9189C34.159 62.8293 34.1234 62.7844 34.0305 62.7844H32.5167C32.4409 62.7844 32.3952 62.8215 32.3798 62.8957C31.9804 64.6929 31.667 66.5319 31.2213 68.3128C30.7012 70.3976 32.9463 70.3489 34.193 70.0521C34.2688 70.035 34.3145 69.9894 34.33 69.9152L34.5575 68.8114C34.573 68.7326 34.5413 68.6993 34.4623 68.7117L33.5406 68.8601C33.4689 68.8715 33.3956 68.8654 33.3267 68.8423C33.2579 68.8193 33.1956 68.78 33.1451 68.7277C33.0945 68.6754 33.0573 68.6117 33.0364 68.5419C33.0156 68.4721 33.0117 68.3983 33.0252 68.3267L33.6033 65.2843C33.6219 65.1884 33.6791 65.1405 33.7751 65.1405L35.1263 65.1451C35.1693 65.145 35.2109 65.1302 35.2442 65.1032C35.2776 65.0762 35.3007 65.0387 35.3097 64.9967L35.5326 63.9532C35.5543 63.8542 35.514 63.8048 35.4119 63.8048L34.0769 63.8094C33.9748 63.811 33.9353 63.7615 33.9585 63.661ZM28.9483 68.227C28.5095 69.1616 27.1513 68.823 26.2343 68.6004C26.1383 68.5772 26.0795 68.6127 26.0578 68.7071L25.7676 69.9129C25.7475 69.9949 25.7792 70.0443 25.8628 70.0613C26.8828 70.2669 27.8564 70.3095 28.7835 70.1889C30.4288 69.9755 31.0835 69.0294 30.7476 67.3505C30.5526 66.3765 29.3523 66.3208 28.6767 65.7852C28.6299 65.7477 28.5942 65.698 28.5735 65.6417C28.5528 65.5854 28.5479 65.5246 28.5595 65.466C28.571 65.4073 28.5984 65.353 28.6387 65.3091C28.679 65.2652 28.7307 65.2334 28.7881 65.217C29.4351 65.03 30.0991 64.9952 30.7801 65.1127C30.8186 65.1195 30.8582 65.1109 30.8903 65.0887C30.9225 65.0666 30.9446 65.0327 30.9519 64.9944L31.2027 63.8071C31.2182 63.7313 31.188 63.6865 31.1121 63.6726C29.473 63.3827 26.0207 63.3711 26.4502 66.1191C26.6406 67.3551 28.0243 67.4664 28.8833 68.0067C28.9191 68.0293 28.9454 68.0641 28.9574 68.1046C28.9694 68.1452 28.9661 68.1887 28.9483 68.227ZM23.3763 69.6741L23.309 69.8874C23.3017 69.9107 23.3 69.9353 23.304 69.9594C23.308 69.9834 23.3176 70.0062 23.3321 70.0259C23.3466 70.0455 23.3655 70.0615 23.3873 70.0725C23.4091 70.0835 23.4331 70.0892 23.4575 70.0892L24.9597 70.0938C25.0231 70.0938 25.0611 70.0629 25.0734 70.001C25.3768 68.5277 25.657 67.0505 25.9139 65.5695C26.3457 63.072 22.7332 63.5242 21.3378 63.9485C21.2744 63.9671 21.2365 64.0096 21.2241 64.0761L21.0035 65.3422C21.0004 65.3626 21.0028 65.3834 21.0105 65.4024C21.0183 65.4215 21.031 65.4381 21.0475 65.4505C21.0639 65.4628 21.0834 65.4705 21.1039 65.4727C21.1244 65.4749 21.145 65.4715 21.1637 65.4628C21.844 65.1289 24.4535 64.4332 24.1262 65.8733C24.1123 65.932 24.0751 65.9645 24.0147 65.9707C22.3315 66.1075 20.1143 66.2559 19.9147 68.394C19.8589 68.9938 20.0044 69.4723 20.3511 69.8294C21.1382 70.6387 22.4035 70.1703 23.2532 69.5836C23.3832 69.494 23.4243 69.5241 23.3763 69.6741ZM36.7538 67.3157H40.5753C40.6573 67.3157 40.71 67.277 40.7332 67.1997C41.2138 65.5881 40.9421 63.7004 38.8642 63.6424C38.0996 63.6208 37.4348 63.7406 36.8699 64.0019C34.7107 64.9967 33.9074 69.2543 36.5913 70.0822C37.6794 70.4177 38.8139 70.3125 39.9949 69.7668C40.0769 69.7297 40.1264 69.6679 40.1435 69.5813L40.4244 68.1899C40.4284 68.169 40.426 68.1473 40.4176 68.1277C40.4091 68.1081 40.395 68.0915 40.377 68.08C40.359 68.0686 40.338 68.0627 40.3166 68.0633C40.2953 68.0639 40.2746 68.0708 40.2572 68.0833C39.173 68.8624 36.6656 69.4862 36.654 67.4177C36.654 67.3497 36.6873 67.3157 36.7538 67.3157Z" fill="#2E2E2E"/>
<path d="M39.981 79.6966C40.7401 78.8641 41.6294 78.0432 42.2516 77.1921C43.3938 75.6338 44.3039 73.9456 44.9819 72.1275C45.2156 71.4999 45.5244 70.2739 45.9082 68.4496C46.7719 70.3396 48.7778 70.6086 50.5284 69.9245C50.6057 69.8951 50.653 69.8395 50.67 69.7575L51.0229 68.1296C51.0476 68.0152 51.012 67.9913 50.9161 68.0577C50.492 68.3468 50.0857 68.5215 49.6972 68.5818C47.0737 68.9853 47.5218 65.7944 48.2717 64.4842C49.075 63.0813 50.5562 62.752 51.796 63.8836C51.8703 63.9516 51.9175 63.9362 51.9376 63.8372L52.2975 62.105C52.3114 62.0339 52.2843 61.9859 52.2162 61.9612C50.0338 61.1681 47.877 61.7223 46.6465 63.6819C46.4654 63.9725 46.2859 64.2531 46.1079 64.5237C46.0738 64.3428 46.0274 64.2353 45.9686 64.2013C46.1326 63.9648 46.1249 63.8295 45.9454 63.7955C45.228 59.1785 43.3567 55.2872 39.9392 52.1079C51.0414 42.199 68.1035 48.7292 70.3671 63.0279C71.7183 71.571 66.9752 80.0398 58.9027 83.2168C52.8129 85.6123 46.224 84.5571 41.0025 80.6381C40.6419 80.3676 40.3013 80.0537 39.981 79.6966ZM65.6866 69.6694L65.6193 69.9523C65.6158 69.9689 65.616 69.9861 65.6199 70.0025C65.6238 70.019 65.6312 70.0343 65.6417 70.0474C65.6521 70.0606 65.6654 70.0711 65.6804 70.0783C65.6954 70.0855 65.7118 70.0892 65.7284 70.0892L67.2723 70.0915C67.342 70.0915 67.383 70.0575 67.3954 69.9894L68.9718 61.9728C68.9742 61.9611 68.974 61.9489 68.9711 61.9373C68.9683 61.9257 68.9629 61.9148 68.9553 61.9055C68.9478 61.8962 68.9383 61.8887 68.9275 61.8835C68.9167 61.8782 68.9049 61.8755 68.8929 61.8754L67.3304 61.8731C67.2545 61.8731 67.2096 61.911 67.1957 61.9867L66.8567 63.8929C66.8413 63.9779 66.7948 64.0027 66.7174 63.9671C61.9928 61.7989 60.5302 71.2185 64.4817 70.1842C64.888 70.0776 65.1944 69.8364 65.545 69.5767C65.675 69.4793 65.7222 69.5102 65.6866 69.6694ZM55.0301 69.6393L54.9535 69.9129C54.9194 70.0304 54.9643 70.0892 55.0881 70.0892L56.5903 70.0938C56.6599 70.0938 56.7017 70.0598 56.7156 69.9918C57.0159 68.5215 57.293 67.0475 57.5468 65.5695C57.9763 63.0673 54.3731 63.5288 52.9661 63.9509C52.8996 63.971 52.8609 64.0143 52.85 64.0807L52.6388 65.3422C52.6202 65.4551 52.6643 65.4891 52.7711 65.4443C53.6023 65.0941 55.0278 64.6535 55.7707 65.3886C55.822 65.4392 55.857 65.504 55.8713 65.5746C55.8855 65.6452 55.8784 65.7184 55.8507 65.7849C55.823 65.8514 55.7761 65.9081 55.7159 65.9479C55.6558 65.9876 55.5851 66.0084 55.513 66.0078C53.9737 66.0055 51.7403 66.3974 51.536 68.3198C51.3804 69.7645 52.3927 70.5576 53.8205 70.1448C54.0929 70.066 54.4574 69.8696 54.914 69.5558C55.0301 69.4754 55.0688 69.5032 55.0301 69.6393ZM60.8784 64.0668L60.8761 63.9555C60.8761 63.8535 60.825 63.8025 60.7229 63.8025H59.2347C59.148 63.8025 59.0954 63.845 59.0768 63.93L57.8672 69.9291C57.8455 70.0374 57.8889 70.0907 57.9972 70.0892H59.4947C59.569 70.0892 59.6139 70.052 59.6293 69.9778C59.8801 68.7766 60.1208 67.5692 60.3514 66.3556C60.5 65.5741 60.9248 65.217 61.7119 65.5162C61.7645 65.5363 61.8009 65.5208 61.821 65.4698L62.4014 63.9485C62.4065 63.9362 62.4086 63.9227 62.4074 63.9094C62.4062 63.896 62.4018 63.883 62.3946 63.8716C62.3873 63.8601 62.3775 63.8503 62.3658 63.8432C62.3541 63.836 62.3408 63.8316 62.3271 63.8303C61.8582 63.7916 61.4333 63.9014 61.0525 64.1596C60.9365 64.2369 60.8784 64.206 60.8784 64.0668Z" fill="#787878"/>
<path d="M37.0208 66.1655C37.0126 66.1658 37.0044 66.1645 36.9966 66.1616C36.9889 66.1587 36.9818 66.1544 36.9758 66.1488C36.9698 66.1432 36.9649 66.1365 36.9615 66.129C36.958 66.1215 36.9561 66.1134 36.9558 66.1052L36.9535 66.0634C36.942 65.7629 37.0488 65.4702 37.2504 65.2497C37.452 65.0292 37.7319 64.899 38.0284 64.8877L38.1074 64.8854C38.4037 64.8743 38.6924 64.9828 38.9101 65.1872C39.1278 65.3916 39.2566 65.675 39.2682 65.9753L39.2705 66.0171C39.2708 66.0253 39.2695 66.0335 39.2666 66.0412C39.2638 66.0489 39.2594 66.056 39.2538 66.062C39.2482 66.0681 39.2415 66.0729 39.234 66.0764C39.2265 66.0798 39.2184 66.0817 39.2102 66.082L37.0208 66.1655Z" fill="#2E2E2E"/>
<path d="M64.0429 67.8398C64.015 66.4461 64.6349 64.621 66.4528 65.2077C66.4877 65.219 66.5172 65.2427 66.5356 65.2744C66.5541 65.3061 66.5601 65.3435 66.5526 65.3793L65.9884 68.183C65.9761 68.2433 65.9474 68.2927 65.9025 68.3314C65.2292 68.9274 64.0684 68.9621 64.0429 67.8398Z" fill="#787878"/>
<path d="M21.7256 68.1853C21.8579 67.2786 23.0466 67.1812 23.7617 67.1487C23.8422 67.1441 23.8747 67.182 23.8592 67.2623L23.6688 68.2572C23.6564 68.319 23.6286 68.3731 23.5852 68.4195C23.1279 68.9018 21.5584 69.3123 21.7256 68.1853Z" fill="#2E2E2E"/>
<path d="M53.3538 68.1227C53.5465 67.2786 54.6911 67.1858 55.3876 67.1487C55.4774 67.1441 55.513 67.1858 55.4944 67.2739C55.4039 67.7215 55.4039 68.2664 55.051 68.5749C54.5866 68.9807 53.1147 69.1732 53.3538 68.1227Z" fill="#787878"/>
</g>
<g id="VISA">
<path d="M74.3111 24.6626C74.2332 24.6626 74.1941 24.6829 74.1356 24.6829C72.4192 24.6829 70.6833 24.6829 68.9668 24.6829C68.8302 24.6829 68.7717 24.6424 68.7328 24.4797C68.5182 23.3822 68.3037 22.2845 68.0695 21.2072C68.0306 21.0041 68.0306 21.0041 67.8161 21.0041C65.3778 21.0041 62.9397 21.0041 60.482 21.0041C60.3262 21.0041 60.2675 21.065 60.2286 21.187C59.858 22.3049 59.4874 23.4229 59.1168 24.5204C59.0777 24.6424 59.0192 24.6626 58.9022 24.6626C56.9127 24.6626 54.9232 24.6626 52.9336 24.6626C52.8948 24.6626 52.8361 24.6626 52.7582 24.6626C52.7972 24.5813 52.8167 24.5001 52.8361 24.439C55.6059 17.508 58.3755 10.577 61.1453 3.66628C61.3793 3.09717 61.5939 2.52804 61.867 1.97925C62.1596 1.36948 62.6082 0.881666 63.2519 0.617433C63.5834 0.475155 63.9346 0.414178 64.2856 0.414178C65.9435 0.414178 67.6209 0.414178 69.2789 0.414178C69.3765 0.414178 69.4153 0.454828 69.435 0.536132C69.9811 3.25976 70.5272 5.96307 71.0539 8.68671C71.6194 11.4713 72.1655 14.2559 72.7313 17.0405C73.2383 19.5609 73.7456 22.0813 74.2526 24.6017C74.3111 24.5813 74.3111 24.6017 74.3111 24.6626ZM67.1139 16.0649C66.4897 13.0161 65.8654 9.98754 65.2414 6.97935C65.2217 6.97935 65.2217 6.97935 65.2023 6.97935C64.1686 10.0079 63.1152 13.0161 62.0621 16.0649C63.7589 16.0649 65.4169 16.0649 67.1139 16.0649Z" fill="#9F9F9F"/>
<path d="M0 1.14513C0.0390099 0.901226 0.0780199 0.677644 0.11703 0.454063C0.11703 0.413411 0.15604 0.393086 0.195049 0.393086C0.23406 0.393086 0.253565 0.393086 0.292574 0.393086C3.56941 0.393086 6.84624 0.393086 10.1426 0.393086C10.9228 0.393086 11.625 0.596341 12.2101 1.16546C12.6782 1.61262 12.9318 2.20207 13.0488 2.85249C13.2634 4.01105 13.4584 5.14928 13.673 6.30784C13.9461 7.81193 14.2191 9.31603 14.4922 10.8405C14.7653 12.3446 15.0383 13.869 15.3309 15.3731C15.4089 15.8202 15.487 16.2674 15.5845 16.7146C15.604 16.7755 15.604 16.8162 15.6235 16.9178C15.6625 16.8365 15.682 16.7959 15.7015 16.7349C17.7495 11.3486 19.7976 5.96232 21.8456 0.555691C21.9041 0.413411 21.9626 0.372759 22.0991 0.372759C24.0692 0.372759 26.0587 0.372759 28.0286 0.372759C28.0872 0.372759 28.1261 0.372759 28.2042 0.372759C28.1846 0.454063 28.1652 0.515039 28.1261 0.576016C26.3317 5.08831 24.5177 9.60059 22.7039 14.1129C21.319 17.5886 19.9146 21.044 18.5297 24.5196C18.4907 24.6416 18.4322 24.6821 18.3152 24.6821C16.3062 24.6821 14.3167 24.6821 12.3076 24.6821C12.1711 24.6821 12.1321 24.6212 12.0931 24.4994C11.2934 21.2472 10.4742 18.0154 9.67448 14.7633C8.87476 11.5722 8.09456 8.40138 7.29487 5.21026C7.23635 5.00701 7.17783 4.80374 7.0998 4.60049C6.90476 4.01105 6.53416 3.54355 6.00754 3.25899C5.5004 2.97445 4.99327 2.75086 4.46663 2.52727C3.15981 1.95816 1.79446 1.55165 0.409605 1.22644C0.292574 1.20611 0.15604 1.18579 0 1.14513Z" fill="#9F9F9F"/>
<path d="M35.9512 23.7261C36.3218 21.9577 36.6728 20.2098 37.024 18.4414C37.0825 18.4618 37.1019 18.4821 37.141 18.5024C38.4283 19.1935 39.7742 19.661 41.1979 19.8846C41.9782 20.0066 42.7584 20.0675 43.5581 20.0066C44.3969 19.9253 45.177 19.7423 45.8792 19.2138C46.0937 19.0512 46.2888 18.848 46.4449 18.6244C46.9129 17.9536 46.8934 17.1813 46.4058 16.5308C46.1328 16.165 45.7816 15.8601 45.3915 15.6162C44.709 15.1893 44.0066 14.7828 43.3045 14.3763C42.3489 13.8275 41.3931 13.2787 40.5543 12.547C39.7351 11.8356 39.072 11.0023 38.7014 9.94534C38.4089 9.07133 38.3502 8.177 38.4478 7.28267C38.5648 6.16477 38.8965 5.12815 39.4815 4.17287C40.2423 2.95332 41.2955 2.05899 42.5244 1.38825C43.6362 0.778478 44.8454 0.412617 46.0937 0.189035C47.1471 0.00610471 48.2002 -0.0345464 49.2536 0.0264303C50.9115 0.107733 52.4914 0.412617 54.0323 1.00206C54.1688 1.04271 54.1884 1.10369 54.1493 1.24597C53.8178 2.8517 53.486 4.43709 53.1545 6.04282C53.1545 6.08346 53.1351 6.12412 53.1156 6.16477C52.8035 6.04282 52.4914 5.90053 52.1598 5.77858C50.7749 5.27045 49.3315 4.96556 47.8492 5.04686C46.991 5.08752 46.1718 5.25013 45.45 5.77858C45.0406 6.08346 44.7284 6.44932 44.6699 6.99813C44.6309 7.34365 44.709 7.64853 44.8845 7.93309C45.177 8.38027 45.567 8.70547 46.0158 8.9697C46.8544 9.47785 47.7126 9.96566 48.5708 10.4535C49.4681 10.9819 50.3458 11.5307 51.1065 12.2624C52.0038 13.1161 52.6474 14.1324 52.9205 15.3926C53.096 16.1853 53.096 16.978 52.9984 17.7707C52.8814 18.8886 52.5304 19.9455 51.9258 20.8805C51.165 22.1 50.1118 22.9943 48.883 23.6652C47.7322 24.275 46.5228 24.6611 45.2551 24.8643C44.3384 25.027 43.4217 25.0879 42.4853 25.0677C40.3008 25.027 38.1747 24.6204 36.1267 23.8075C36.0876 23.787 36.0488 23.7668 36.0097 23.7464C36.0097 23.7464 35.9903 23.7464 35.9512 23.7261Z" fill="#9F9F9F"/>
<path d="M25.8283 24.6603C27.4863 16.5708 29.1246 8.48119 30.7826 0.391586C32.7721 0.391586 34.7616 0.391586 36.7705 0.391586C36.7315 0.635493 36.673 0.859076 36.6341 1.08266C36.0684 3.88759 35.5028 6.69253 34.9177 9.49747C34.2934 12.526 33.6888 15.5342 33.0646 18.5627C32.6551 20.5342 32.2648 22.5058 31.8748 24.4774C31.8357 24.6401 31.7772 24.6808 31.6408 24.6808C29.7683 24.6808 27.8957 24.6808 26.0232 24.6808C25.9647 24.6603 25.9062 24.6603 25.8283 24.6603Z" fill="#9F9F9F"/>
</g>
</g>
</svg>
