<svg width="108" height="38" viewBox="0 0 108 38" fill="none" xmlns="http://www.w3.org/2000/svg">
<path fill-rule="evenodd" clip-rule="evenodd" d="M45.893 17.6395H47.4358V17.2661H47.4485C47.4675 17.2495 47.4675 17.2324 47.4675 17.2324C47.4675 17.0552 47.3515 16.9075 47.2251 16.9075H47.3053V16.7306H47.3686C47.4171 16.7306 47.4677 16.6335 47.4677 16.5344C47.4677 16.4226 47.4171 16.3258 47.3686 16.3258H46.1838C46.1353 16.3258 46.0891 16.4226 46.0891 16.5344C46.0891 16.6335 46.1353 16.7306 46.1838 16.7306H46.2513V16.9075H36.4973V16.7306H36.5648C36.6133 16.7306 36.645 16.6335 36.645 16.5344C36.645 16.4226 36.6133 16.3258 36.5648 16.3258H35.3634C35.317 16.3258 35.2812 16.4226 35.2812 16.5344C35.2812 16.6335 35.317 16.7306 35.3634 16.7306H35.4605V16.9075H35.3634C35.2326 16.9075 35.1377 17.0214 35.1208 17.186V17.2661H35.1377C35.1525 17.4771 35.2495 17.6395 35.3634 17.6395H36.9211V17.2661H36.9844V18.1431L37.9919 18.5793C37.8783 18.4802 37.7665 18.3705 37.7665 18.3705L37.9919 18.5793C38.4283 19.0178 38.205 19.9096 38.205 20.6896C37.9919 23.4459 37.8783 24.9867 38.3168 27.7441L38.5108 27.7778V28.2817C38.5108 28.4104 39.0145 28.5093 39.6302 28.5093C40.2626 28.5093 40.7665 28.4104 40.7665 28.2817V27.7631C40.7981 27.7631 40.834 27.7441 40.8656 27.7441C41.302 26.2031 41.1881 24.0951 41.1881 22.3413C40.9624 19.5848 40.4102 18.4802 42.1788 18.1431V17.2661H42.4528V17.6395H43.9938V17.2661H44.2699V17.6395H45.5367V17.2661H45.8932L45.893 17.6395Z" fill="#292233"/>
<path fill-rule="evenodd" clip-rule="evenodd" d="M105.419 11.0181H78.8285V10.5646C78.8285 10.2716 78.6492 10.0143 78.3902 9.91513V8.89302C78.3902 8.74747 78.3417 8.68232 78.1943 8.6338V8.48849C78.1943 8.26068 78.0192 8.06685 77.7724 8.06685C77.5301 8.06685 77.3531 8.26068 77.3531 8.48849V8.58529H76.9948C76.9948 8.48849 76.9296 8.42498 76.8344 8.42498C76.8008 8.42507 76.768 8.43625 76.7414 8.4568C76.7147 8.47734 76.6955 8.50611 76.6868 8.53865C76.6383 8.24357 76.4276 7.56505 75.8606 7.56505H73.8621C73.1013 7.56505 72.8566 7.98646 72.8566 8.64833H72.6628C72.6628 8.64833 72.6776 8.51966 72.6776 8.3113V7.57982C72.6704 7.28012 72.5462 6.99515 72.3315 6.78592C72.1168 6.5767 71.8287 6.45987 71.5289 6.46044H70.5865V6.36365C70.5717 6.10443 70.4243 6.02216 70.4243 6.02216C69.3068 6.19912 68.1855 6.94537 68.1855 6.94537L68.4133 7.45115H68.6238V7.46591L68.9001 8.31107L68.5566 8.6481H67.0008V8.29208L66.4505 7.93583V7.7249H64.6481V7.92107H64.2244V7.7249H62.4241V7.92107H62.0025V7.7249H60.202V7.92107H59.7804V7.7249H57.9799V7.92107H57.8325V6.99552H62.2612L63.2374 6.55724H63.9162C63.9647 6.62263 64.0153 6.67091 64.0638 6.67091H64.616C64.8417 6.67091 65.0376 5.84263 65.0376 4.82029C65.0376 3.79982 64.8417 2.95466 64.616 2.95466H64.0638C64.0153 2.95466 63.9647 3.00318 63.9162 3.06833H63.1214V1.29951L62.8959 0.814819H61.5994V1.33325L61.3865 0.814819H57.2508L56.9916 1.33325V1.35013C56.9916 1.05716 56.8123 0.814819 56.5847 0.814819C56.3402 0.814819 56.1654 1.05716 56.1654 1.35013V1.72114H53.6484V2.63146H53.5008V3.06786H53.2732C53.2099 2.80865 53.13 2.64622 53.033 2.64622H52.4955C52.4154 2.64622 52.3352 2.7749 52.2848 2.97318V2.95419H51.9286C51.7978 2.54919 51.6546 2.30708 51.4734 2.30708H50.6006C50.2254 2.30708 49.9174 3.44123 49.9174 4.85334C49.9174 6.26568 50.2251 7.41693 50.6006 7.41693H51.4734C51.6061 7.41693 51.7348 7.25451 51.8487 6.99505H52.2848V6.75083C52.3355 6.94466 52.4156 7.05857 52.4955 7.05857H53.033C53.0983 7.05857 53.1616 6.96154 53.2247 6.81623H53.5008V6.99529H53.6484V7.72466H53.52V7.92084H52.9507V7.75865H51.2979V7.92084H50.6487V8.66685L48.3593 8.90919H40.9284C40.8335 8.50443 40.3781 8.19693 39.8238 8.19693C39.2569 8.19693 38.8036 8.50466 38.7066 8.90919H34.343L34.0479 9.05685H30.8838V8.00076C31.2422 6.73584 30.8838 5.37201 30.8838 5.37201C30.1418 5.2581 29.5873 5.37201 29.5873 5.37201C28.7777 6.44263 28.938 8.00076 28.938 8.00076V9.05685H28.9884C28.9884 9.05685 28.5016 9.99716 28.938 11.1482V12.0545C28.938 12.0545 28.9064 12.1536 28.8726 12.3158H26.8153C26.6993 11.3586 26.3768 10.678 25.9847 10.678H14.4516C14.1923 10.678 13.9645 10.8233 13.7855 11.068C13.6062 10.8233 13.3786 10.678 13.1383 10.678H1.63264C1.16272 10.678 0.774597 11.7486 0.774597 13.0621C0.774597 14.3774 1.16249 15.4485 1.63264 15.4485H13.1383C13.3786 15.4485 13.6064 15.3008 13.7855 15.0564C13.9648 15.3008 14.1923 15.4485 14.4516 15.4485H25.9847C26.343 15.4485 26.6508 14.8626 26.7815 14.0364H28.841C28.8726 14.1498 28.9064 14.2806 28.938 14.4093H30.0426C30.1059 15.4316 30.3651 16.3086 31.0165 16.3086H50.7286V16.1779C51.0701 16.2264 51.5887 16.3401 51.9935 16.6626L51.8163 18.3365L51.5695 18.5312L51.5212 18.7588L51.7657 18.839C51.6855 19.2941 51.6201 19.6021 51.6201 19.6021C51.6201 19.6021 50.3531 27.1604 45.7134 35.2089C45.7134 35.2089 45.5848 35.4196 45.9094 35.6136C46.234 35.8075 48.0194 36.944 48.3926 37.123C48.7805 37.3169 49.0228 36.992 49.0228 36.992C53.6646 28.929 54.9316 21.3843 54.9316 21.3843L55.3678 20.4936L55.1402 20.4114L55.2349 19.9895L55.7262 20.154V20.1374C55.7409 20.154 55.7409 20.154 55.7578 20.154L55.7262 20.2679L56.2765 20.3479C56.4558 20.3966 56.6158 20.4114 56.6833 20.428C56.7801 21.0775 56.974 22.2948 57.086 22.4085C57.2334 22.5857 57.2988 22.3412 57.2988 22.3412L57.1849 20.4618H58.5466C58.7259 20.6387 58.905 20.9001 59.0337 21.2556C59.3751 22.2442 59.8303 23.526 60.1026 24.1433C60.3977 24.7757 60.9162 25.0351 62.4403 25.0351H64.9406C65.8005 25.0351 65.7035 24.3543 66.6776 24.2886C67.0317 24.272 67.2909 24.3058 67.4723 24.369C68.5917 26.9174 69.8248 30.0817 70.5351 31.8165C71.4794 31.2662 72.2426 30.988 73.1808 30.2758C74.0259 29.7233 74.8671 29.1899 75.7294 28.6206V28.0705C74.513 26.5611 69.7425 19.7322 71.4605 18.0922C72.0298 17.8815 72.5503 17.8011 72.8559 17.7845C73.44 17.7339 73.6509 17.3143 73.6866 17.2152H75.9084C76.0052 17.2152 76.1001 17.2152 76.1993 17.2004H76.3596V17.1667C76.5239 17.1184 76.6186 17.0214 76.6863 16.859V16.9581H77.3526C77.3526 17.1013 77.5296 17.2002 77.7719 17.2002C78.0187 17.2002 78.1938 17.1013 78.1938 16.9581H79.4121C79.9308 16.9581 79.8823 16.4858 79.8823 16.4858V15.1562H79.1212V14.9139H90.3778C91.369 14.9139 91.5942 15.4808 92.3259 15.9172C93.0553 16.3558 102.465 23.1697 103.732 23.9983C105.012 24.8244 106.473 25.2294 106.88 24.3397C107.285 23.4627 105.986 18.7586 107.139 13.24C107.481 10.9886 106.783 11.0181 105.419 11.0181ZM31.3221 11.0835H31.0481V11.0033H31.3221V11.0835ZM66.8212 23.3153L65.0864 24.3859H62.0025C61.0643 24.3859 60.7062 24.1921 60.3982 23.3153C60.0905 22.4551 59.8626 21.8059 59.6034 20.8668C59.5597 20.7365 59.5488 20.5975 59.5718 20.462H62.8155C64.8267 22.1811 62.5711 23.9476 63.0096 23.9643C63.446 23.9811 63.9834 23.5595 64.2914 22.9103C64.5823 22.2611 64.4705 21.029 64.4705 20.8204C64.4705 20.6242 64.6476 20.462 64.6476 20.462H64.9725C65.2315 20.5757 65.4762 20.7065 65.6871 20.9003C66.0117 21.3526 66.4186 22.1326 66.8569 23.0579L66.8212 23.3153ZM69.7092 7.25521C69.5658 7.25521 69.45 7.14154 69.45 6.97912C69.4495 6.94485 69.4559 6.91083 69.4687 6.87905C69.4816 6.84727 69.5006 6.81837 69.5247 6.79404C69.5489 6.7697 69.5776 6.75043 69.6093 6.73733C69.641 6.72424 69.6749 6.7176 69.7092 6.71779C69.8569 6.71779 69.9853 6.83146 69.9853 6.97912C69.9853 7.1413 69.8569 7.25521 69.7092 7.25521ZM102.679 18.8219C102.679 18.9695 102.679 19.2772 102.63 19.408C102.563 19.3911 102.434 19.3405 102.192 19.1802C100.535 17.9954 97.162 15.6597 97.1283 15.6261H97.1135C96.4137 15.1729 96.2873 14.8461 96.3187 14.7512C96.3504 14.6376 96.5948 14.5089 96.8857 14.5089H101.816C102.012 14.5089 102.451 14.5089 102.563 14.6038C102.599 14.6376 102.679 14.7831 102.679 15.3184V18.8219Z" fill="#292233"/>
</svg>
