<svg width="34" height="34" viewBox="0 0 34 34" fill="none" xmlns="http://www.w3.org/2000/svg">
<g filter="url(#filter0_d_1_459)">
<path d="M12.2072 5H13.4612C15.3584 5.1104 17.2232 5.534 18.8276 6.5864C19.8188 7.2368 20.6816 8.3336 20.552 9.554C20.33 11.6396 17.6984 12.8024 15.95 13.1912C13.1192 13.8212 9.9692 13.6328 7.3316 12.332C6.0748 11.712 5.2976 10.804 5 9.608V9.0524C5.5784 6.0788 9.7148 5.1368 12.2072 5Z" fill="white"/>
<path d="M5 13.7816V12.4064C7.5596 14.6504 11.366 15.236 14.7152 14.8028C14.7231 14.8018 14.7311 14.8033 14.7381 14.807C14.7451 14.8108 14.7508 14.8166 14.7543 14.8237C14.7579 14.8308 14.7592 14.8389 14.758 14.8467C14.7567 14.8546 14.7531 14.8619 14.7476 14.8676C13.942 15.6892 13.3124 16.6292 12.8588 17.6876C12.8428 17.7244 12.8148 17.7432 12.7748 17.744C10.2752 17.7668 5.546 16.8824 5 13.7816Z" fill="white"/>
<path d="M29 20.822V21.7148C28.6568 25.6916 25.6976 28.7168 21.7028 29H20.8064C15.0128 28.5584 11.5664 22.202 14.6792 17.2076C17.1716 13.2092 22.6424 12.2936 26.2604 15.3596C27.9052 16.7532 28.8184 18.574 29 20.822ZM20.5652 24.7124V26.12C20.5652 26.1632 20.5868 26.1848 20.63 26.1848L21.9152 26.1836C21.9305 26.1836 21.9451 26.1774 21.9559 26.1664C21.9667 26.1553 21.9728 26.1404 21.9728 26.1248L21.9692 24.74C21.9692 24.6928 21.9904 24.6588 22.0328 24.638C24.1364 23.6096 23.6372 20.7248 21.3212 20.5556C20.186 20.4728 20.444 19.0556 21.3512 19.1576C21.6944 19.196 21.896 19.406 21.956 19.7876C21.9594 19.8068 21.9694 19.8241 21.9843 19.8367C21.9993 19.8492 22.0181 19.856 22.0376 19.856L23.3288 19.8572C23.3359 19.8572 23.3429 19.8558 23.3494 19.8529C23.3559 19.85 23.3618 19.8458 23.3666 19.8405C23.3715 19.8352 23.3752 19.829 23.3776 19.8221C23.3799 19.8153 23.3809 19.808 23.3804 19.8008C23.3044 18.8936 22.8552 18.2604 22.0328 17.9012C21.9912 17.8828 21.9704 17.8512 21.9704 17.8064V16.4108C21.9704 16.3644 21.9472 16.3412 21.9008 16.3412L20.6264 16.3424C20.5856 16.3424 20.5652 16.3628 20.5652 16.4036V17.8148C20.5652 17.8636 20.5428 17.8968 20.498 17.9144C18.3896 18.7616 18.9104 21.7856 21.1328 21.9668C21.388 21.9868 21.5648 22.03 21.6632 22.0964C22.2896 22.514 21.872 23.492 21.1388 23.366C20.818 23.3108 20.6288 23.104 20.5712 22.7456C20.5632 22.696 20.534 22.6712 20.4836 22.6712H19.2164C19.1692 22.6712 19.1476 22.6948 19.1516 22.742C19.2308 23.6476 19.6848 24.2788 20.5136 24.6356C20.548 24.65 20.5652 24.6756 20.5652 24.7124Z" fill="white"/>
<path d="M5 17.9984V16.6292C7.0172 18.3824 9.7184 19.0676 12.3296 19.1372C12.3368 19.1374 12.344 19.1391 12.3504 19.1424C12.3569 19.1456 12.3625 19.1502 12.3669 19.1559C12.3713 19.1616 12.3743 19.1681 12.3758 19.1751C12.3772 19.182 12.377 19.1892 12.3752 19.196C12.1608 20.072 12.0868 20.96 12.1532 21.86C12.1572 21.9112 12.1336 21.9356 12.0824 21.9332C9.7028 21.8252 5.534 20.888 5 17.9984Z" fill="white"/>
<path d="M5 22.2212V20.8448C5.8088 21.556 6.6892 22.0916 7.6412 22.4516C9.1236 23.0124 10.68 23.3112 12.3104 23.348C12.3544 23.3488 12.3816 23.3708 12.392 23.414C12.62 24.354 12.9884 25.2356 13.4972 26.0588C13.5396 26.1268 13.5208 26.1628 13.4408 26.1668C10.7864 26.2856 5.6228 25.5488 5 22.2212Z" fill="white"/>
</g>
<defs>
<filter id="filter0_d_1_459" x="0" y="0" width="34" height="34" filterUnits="userSpaceOnUse" color-interpolation-filters="sRGB">
<feFlood flood-opacity="0" result="BackgroundImageFix"/>
<feColorMatrix in="SourceAlpha" type="matrix" values="0 0 0 0 0 0 0 0 0 0 0 0 0 0 0 0 0 0 127 0" result="hardAlpha"/>
<feOffset/>
<feGaussianBlur stdDeviation="2.5"/>
<feComposite in2="hardAlpha" operator="out"/>
<feColorMatrix type="matrix" values="0 0 0 0 1 0 0 0 0 1 0 0 0 0 1 0 0 0 0.25 0"/>
<feBlend mode="normal" in2="BackgroundImageFix" result="effect1_dropShadow_1_459"/>
<feBlend mode="normal" in="SourceGraphic" in2="effect1_dropShadow_1_459" result="shape"/>
</filter>
</defs>
</svg>
