<svg width="34" height="34" viewBox="0 0 34 34" fill="none" xmlns="http://www.w3.org/2000/svg">
<g id="&#208;&#151;&#208;&#189;&#208;&#176;&#209;&#135;&#208;&#190;&#208;&#186;" filter="url(#filter0_d_1_457)">
<path d="M16.9791 5C10.6651 5 5.49194 9.86128 5 16.038L11.4429 18.6974C11.989 18.3244 12.6485 18.1066 13.3573 18.1066C13.4213 18.1066 13.4846 18.1083 13.547 18.1115L16.4124 13.9653C16.4124 13.9458 16.4124 13.9263 16.4124 13.9068C16.4124 11.4115 18.4459 9.38108 20.9458 9.38108C23.445 9.38108 25.4784 11.4115 25.4784 13.9068C25.4784 16.4028 23.445 18.4324 20.9458 18.4324C20.9104 18.4324 20.8768 18.4317 20.8423 18.4309L16.7557 21.3421C16.7581 21.3949 16.7598 21.4493 16.7598 21.5021C16.7598 23.3758 15.2339 24.9001 13.3573 24.9001C11.7106 24.9001 10.3333 23.7261 10.0212 22.1716L5.41392 20.2704C6.84129 25.308 11.4757 29 16.9791 29C23.6174 29 29 23.6269 29 16.9992C29 10.3723 23.6174 5 16.9791 5Z" fill="white"/>
<path d="M12.5336 23.2091L11.0569 22.6005C11.3189 23.1442 11.7714 23.5991 12.3726 23.8494C13.6718 24.3897 15.1706 23.7747 15.7119 22.4762C15.9739 21.8482 15.9755 21.1551 15.716 20.5254C15.4565 19.8958 14.9662 19.4049 14.3371 19.1425C13.7121 18.8833 13.0427 18.893 12.4547 19.1141L13.9798 19.7437C14.9382 20.1427 15.3916 21.2412 14.9916 22.1976C14.5925 23.1547 13.4912 23.6081 12.5336 23.2091Z" fill="white"/>
<path d="M18.6816 13.9022C18.6816 12.6517 19.6974 11.6377 20.9506 11.6377C22.2031 11.6377 23.219 12.6517 23.219 13.9022C23.219 15.1534 22.2031 16.1675 20.9506 16.1675C19.6974 16.1675 18.6816 15.1534 18.6816 13.9022ZM23.9664 13.9079C23.9664 12.2446 22.6113 10.8918 20.9457 10.8918C19.2802 10.8918 17.9259 12.2446 17.9259 13.9079C17.9259 15.5711 19.2802 16.9231 20.9457 16.9231C22.6105 16.9231 23.9664 15.5711 23.9664 13.9079Z" fill="white"/>
</g>
<defs>
<filter id="filter0_d_1_457" x="0" y="0" width="34" height="34" filterUnits="userSpaceOnUse" color-interpolation-filters="sRGB">
<feFlood flood-opacity="0" result="BackgroundImageFix"/>
<feColorMatrix in="SourceAlpha" type="matrix" values="0 0 0 0 0 0 0 0 0 0 0 0 0 0 0 0 0 0 127 0" result="hardAlpha"/>
<feOffset/>
<feGaussianBlur stdDeviation="2.5"/>
<feComposite in2="hardAlpha" operator="out"/>
<feColorMatrix type="matrix" values="0 0 0 0 1 0 0 0 0 1 0 0 0 0 1 0 0 0 0.25 0"/>
<feBlend mode="normal" in2="BackgroundImageFix" result="effect1_dropShadow_1_457"/>
<feBlend mode="normal" in="SourceGraphic" in2="effect1_dropShadow_1_457" result="shape"/>
</filter>
</defs>
</svg>
