<svg width="12" height="12" viewBox="0 0 12 12" fill="none" xmlns="http://www.w3.org/2000/svg">
<g id="SVG" clip-path="url(#clip0_51_3)">
<g id="Clip path group">
<mask id="mask0_51_3" style="mask-type:luminance" maskUnits="userSpaceOnUse" x="0" y="0" width="12" height="12">
<g id="shared-star-id-a">
<path id="Vector" d="M0 0H12V12H0V0Z" fill="white"/>
</g>
</mask>
<g mask="url(#mask0_51_3)">
<g id="Group">
<path id="Vector_2" d="M11.9699 4.59982C11.9313 4.48072 11.8586 4.37556 11.7609 4.29735C11.6631 4.21915 11.5446 4.17133 11.4199 4.15982L7.95991 3.84982L6.58991 0.649821C6.54108 0.533653 6.45904 0.434484 6.35409 0.364748C6.24913 0.295012 6.12592 0.257812 5.99991 0.257812C5.87389 0.257812 5.75069 0.295012 5.64573 0.364748C5.54077 0.434484 5.45874 0.533653 5.40991 0.649821L4.03991 3.84982L0.579908 4.15982C0.455225 4.17158 0.336732 4.21966 0.239109 4.29811C0.141487 4.37655 0.0690251 4.48192 0.0307017 4.60115C-0.00762162 4.72038 -0.0101223 4.84823 0.0235094 4.96886C0.0571411 5.0895 0.125427 5.19762 0.219908 5.27982L2.83991 7.57982L2.05991 10.9798C2.03285 11.1016 2.04198 11.2286 2.08616 11.3453C2.13033 11.4619 2.20764 11.5631 2.30857 11.6364C2.4095 11.7098 2.52965 11.752 2.65425 11.7579C2.77885 11.7638 2.90247 11.7332 3.00991 11.6698L5.99991 9.87982L8.98991 11.6698C9.09813 11.7344 9.22301 11.7656 9.34888 11.7595C9.47475 11.7533 9.59602 11.7102 9.69748 11.6354C9.79893 11.5607 9.87606 11.4576 9.91918 11.3392C9.96231 11.2208 9.96952 11.0923 9.93991 10.9698L9.15991 7.56982L11.7799 5.27982C11.9799 5.10982 12.0499 4.84982 11.9699 4.59982Z" fill="#606062"/>
</g>
</g>
</g>
</g>
<defs>
<clipPath id="clip0_51_3">
<rect width="12" height="12" fill="white"/>
</clipPath>
</defs>
</svg>
